<svg width="252" height="220" viewBox="0 0 252 220" fill="none" xmlns="http://www.w3.org/2000/svg">
<path fill-rule="evenodd" clip-rule="evenodd" d="M252 89.3333H74.6667V190L222 190L252 220V190V89.3333Z" fill="#026FC5"/>
<path fill-rule="evenodd" clip-rule="evenodd" d="M252 12H12V112.667V142.667L42 112.667H252V12Z" fill="#026FC5"/>
<path fill-rule="evenodd" clip-rule="evenodd" d="M240 0H0V100.667V130.667L30 100.667H240V0Z" fill="white"/>
<path fill-rule="evenodd" clip-rule="evenodd" d="M240 77.3333H62.6667V178L210 178L240 208V178V77.3333Z" fill="#89E90A"/>
<path d="M106.816 119.984C106.816 118.789 107.136 117.872 107.776 117.232C108.416 116.592 109.333 116.272 110.528 116.272H129.472C130.667 116.272 131.584 116.592 132.224 117.232C132.864 117.872 133.184 118.789 133.184 119.984V140.336C133.184 141.531 132.864 142.448 132.224 143.088C131.584 143.728 130.667 144.048 129.472 144.048H110.528C109.333 144.048 108.416 143.749 107.776 143.152C107.136 142.512 106.816 141.573 106.816 140.336V119.984ZM128 121.392H112V138.928H128V121.392ZM96.5761 111.792C97.9414 111.792 98.6241 112.475 98.6241 113.84V154.544C98.6241 155.909 97.9414 156.592 96.5761 156.592H95.4241C94.0587 156.592 93.3761 155.909 93.3761 154.544V113.84C93.3761 112.475 94.0587 111.792 95.4241 111.792H96.5761ZM99.4561 98.224C100.736 97.6693 101.632 98.032 102.144 99.312L105.216 106.032C105.728 107.312 105.365 108.208 104.128 108.72L102.976 109.232C101.739 109.744 100.843 109.381 100.288 108.144L97.2801 101.36C96.7254 100.123 97.0881 99.2267 98.3681 98.672L99.4561 98.224ZM142.848 100.656C144.085 100.656 145.024 100.976 145.664 101.616C146.304 102.256 146.624 103.195 146.624 104.432V152.368C146.624 153.648 146.304 154.608 145.664 155.248C145.024 155.888 144.085 156.208 142.848 156.208H136.768C135.445 156.208 134.784 155.525 134.784 154.16V153.008C134.784 151.643 135.445 150.96 136.768 150.96H141.376V105.84H111.872C110.549 105.84 109.888 105.179 109.888 103.856V102.704C109.888 101.339 110.549 100.656 111.872 100.656H142.848Z" fill="black"/>
<path d="M160.512 139.824C160.512 138.629 160.811 137.712 161.408 137.072C162.048 136.432 162.987 136.112 164.224 136.112H203.776C204.971 136.112 205.888 136.432 206.528 137.072C207.168 137.669 207.488 138.587 207.488 139.824V152.432C207.488 153.627 207.168 154.544 206.528 155.184C205.931 155.824 205.013 156.144 203.776 156.144H164.224C163.029 156.144 162.112 155.824 161.472 155.184C160.832 154.544 160.512 153.627 160.512 152.432V139.824ZM202.176 140.976H165.824V151.216H202.176V140.976ZM196.352 125.744C197.589 125.744 198.208 126.363 198.208 127.6V128.752C198.208 129.989 197.589 130.608 196.352 130.608H171.648C170.411 130.608 169.792 129.989 169.792 128.752V127.6C169.792 126.363 170.411 125.744 171.648 125.744H196.352ZM176.832 112.752C177.344 112.24 178.005 111.984 178.816 111.984H189.248C190.059 111.984 190.763 112.261 191.36 112.816C194.048 115.76 197.141 118.491 200.64 121.008C204.181 123.525 208 125.765 212.096 127.728C213.248 128.283 213.568 129.136 213.056 130.288L212.544 131.312C212.032 132.507 211.2 132.827 210.048 132.272C205.824 130.224 201.877 127.899 198.208 125.296C194.539 122.693 191.232 119.899 188.288 116.912H179.712C176.597 120.069 173.12 122.992 169.28 125.68C165.483 128.368 161.707 130.565 157.952 132.272C156.8 132.827 155.968 132.507 155.456 131.312L154.944 130.288C154.432 129.136 154.752 128.283 155.904 127.728C160.171 125.723 164.053 123.44 167.552 120.88C171.093 118.277 174.187 115.568 176.832 112.752ZM170.304 104.752C171.669 104.752 172.352 105.413 172.352 106.736V110.576C172.352 111.941 171.669 112.624 170.304 112.624H169.152C167.829 112.624 167.168 111.941 167.168 110.576V106.736C167.168 105.413 167.829 104.752 169.152 104.752H170.304ZM160.448 98.352C161.813 98.352 162.496 98.9493 162.496 100.144V102.32H180.864C182.101 102.32 182.72 102.939 182.72 104.176V105.328C182.72 106.565 182.101 107.184 180.864 107.184H160.896C158.464 107.184 157.248 105.947 157.248 103.472V100.144C157.248 98.9493 157.931 98.352 159.296 98.352H160.448ZM199.552 104.752C200.875 104.752 201.536 105.413 201.536 106.736V110.576C201.536 111.941 200.875 112.624 199.552 112.624H198.336C197.013 112.624 196.352 111.941 196.352 110.576V106.736C196.352 105.413 197.013 104.752 198.336 104.752H199.552ZM189.056 98.352C190.421 98.352 191.104 98.9493 191.104 100.144V102.32H210.048C211.285 102.32 211.904 102.939 211.904 104.176V105.328C211.904 106.565 211.285 107.184 210.048 107.184H189.504C187.072 107.184 185.856 105.947 185.856 103.472V100.144C185.856 98.9493 186.539 98.352 187.904 98.352H189.056Z" fill="black"/>
<path d="M82.2401 24.4747C83.6054 24.4747 84.2881 25.1573 84.2881 26.5227V27.6747C84.2881 29.04 83.6054 29.7227 82.2401 29.7227H29.7601C28.3947 29.7227 27.7121 29.04 27.7121 27.6747V26.5227C27.7121 25.1573 28.3947 24.4747 29.7601 24.4747H82.2401ZM56.5761 41.6267C57.9841 41.6267 58.6881 42.3307 58.6881 43.7387V77.1467C58.6881 78.5547 57.9841 79.2587 56.5761 79.2587H55.4241C54.0161 79.2587 53.3121 78.5547 53.3121 77.1467V43.7387C53.3121 42.3307 54.0161 41.6267 55.4241 41.6267H56.5761ZM64.1281 39.8347C65.1094 38.896 66.0694 38.9387 67.0081 39.9627L84.2881 59.3547C85.1841 60.336 85.1414 61.296 84.1601 62.2347L83.2641 63.0027C82.2827 63.9413 81.3227 63.8987 80.3841 62.8747L63.1041 43.4827C62.2081 42.5013 62.2507 41.5413 63.2321 40.6027L64.1281 39.8347ZM55.8081 27.3547C57.0454 27.9093 57.3654 28.8053 56.7681 30.0427C53.9094 36.3573 50.3041 42.3733 45.9521 48.0907C41.6001 53.808 36.8001 58.9707 31.5521 63.5787C30.5707 64.5173 29.6107 64.4747 28.6721 63.4507L27.9041 62.5547C27.0081 61.5307 27.0721 60.5493 28.0961 59.6107C33.3867 54.8747 38.0374 49.84 42.0481 44.5067C46.1014 39.1733 49.4081 33.648 51.9681 27.9307C52.5654 26.6933 53.4614 26.3307 54.6561 26.8427L55.8081 27.3547Z" fill="black"/>
<path d="M144.896 24.0267C146.219 24.0267 146.88 24.7093 146.88 26.0747V27.2907C146.88 28.656 146.219 29.3387 144.896 29.3387H95.1681C93.8454 29.3387 93.1841 28.656 93.1841 27.2907V26.0747C93.1841 24.7093 93.8454 24.0267 95.1681 24.0267H144.896ZM147.072 72.0907C148.437 72.0907 149.12 72.7733 149.12 74.1387V75.3547C149.12 76.72 148.437 77.4027 147.072 77.4027H92.9281C91.5627 77.4027 90.8801 76.72 90.8801 75.3547V74.1387C90.8801 72.7733 91.5627 72.0907 92.9281 72.0907H147.072ZM122.944 26.6507C124.352 26.6507 125.056 27.3547 125.056 28.7627V72.7947C125.056 74.16 124.352 74.8427 122.944 74.8427H121.792C120.384 74.8427 119.68 74.16 119.68 72.7947V28.7627C119.68 27.3547 120.384 26.6507 121.792 26.6507H122.944ZM103.296 40.7947C104.661 40.7947 105.344 41.4987 105.344 42.9067V72.7947C105.344 74.16 104.661 74.8427 103.296 74.8427H102.08C100.715 74.8427 100.032 74.16 100.032 72.7947V42.9067C100.032 41.4987 100.715 40.7947 102.08 40.7947H103.296ZM142.336 45.5307C143.701 45.5307 144.384 46.2133 144.384 47.5787V48.7947C144.384 50.1173 143.701 50.7787 142.336 50.7787H124.736C123.371 50.7787 122.688 50.1173 122.688 48.7947V47.5787C122.688 46.2133 123.371 45.5307 124.736 45.5307H142.336Z" fill="black"/>
<path d="M170.176 22.4267C171.285 23.152 171.499 24.0693 170.816 25.1787L160.448 41.6267L166.08 45.5307C167.147 46.3413 167.296 47.28 166.528 48.3467L165.824 49.3067C165.013 50.3733 164.075 50.5227 163.008 49.7547L156.288 44.9547C154.453 43.5467 154.155 41.8613 155.392 39.8987L166.4 22.4267C167.125 21.3173 168.043 21.1253 169.152 21.8507L170.176 22.4267ZM173.696 37.9787C174.848 38.6613 175.061 39.5787 174.336 40.7307L162.944 58.0107H172.096C173.419 58.0107 174.08 58.6507 174.08 59.9307V61.1467C174.08 62.4693 173.419 63.1307 172.096 63.1307H160.32C158.101 63.1307 156.715 62.6613 156.16 61.7227C155.648 60.7413 155.989 59.312 157.184 57.4347L169.92 37.9787C170.645 36.8693 171.563 36.656 172.672 37.3387L173.696 37.9787ZM172.096 71.3227C173.504 71.3227 174.208 72.0053 174.208 73.3707V74.6507C174.208 76.016 173.504 76.6987 172.096 76.6987H156.544C155.136 76.6987 154.432 76.016 154.432 74.6507V73.3707C154.432 72.0053 155.136 71.3227 156.544 71.3227H172.096ZM204.224 23.3227C206.357 23.3227 207.765 23.8347 208.448 24.8587C209.131 25.8827 208.939 27.3333 207.872 29.2107C205.056 34.5013 201.088 38.9173 195.968 42.4587C190.891 46 185.109 48.4107 178.624 49.6907C177.387 49.9467 176.64 49.4347 176.384 48.1547L176.192 47.0027C175.979 45.7653 176.512 44.9973 177.792 44.6987C183.467 43.5467 188.395 41.6053 192.576 38.8747C196.8 36.1013 200.171 32.6027 202.688 28.3787H179.968C178.645 28.3787 177.984 27.7387 177.984 26.4587V25.3067C177.984 23.984 178.645 23.3227 179.968 23.3227H204.224ZM211.52 73.0507C212.8 73.0507 213.44 73.712 213.44 75.0347V76.1867C213.44 77.5093 212.8 78.1707 211.52 78.1707H178.048C176.768 78.1707 176.128 77.5093 176.128 76.1867V75.0347C176.128 73.712 176.768 73.0507 178.048 73.0507H211.52ZM209.856 53.7867C211.136 53.7867 211.776 54.4267 211.776 55.7067V56.9227C211.776 58.2453 211.136 58.9067 209.856 58.9067H179.712C178.389 58.9067 177.728 58.2453 177.728 56.9227V55.7067C177.728 54.4267 178.389 53.7867 179.712 53.7867H209.856ZM212.288 44.6347C213.44 45.1893 213.76 46.064 213.248 47.2587L212.736 48.2827C212.181 49.4773 211.307 49.7973 210.112 49.2427L196.288 42.7147C195.093 42.2027 194.773 41.3493 195.328 40.1547L195.84 39.0667C196.395 37.9147 197.269 37.5947 198.464 38.1067L212.288 44.6347ZM195.456 56.4107C196.779 56.4107 197.44 57.0933 197.44 58.4587V73.4987C197.44 74.864 196.779 75.5467 195.456 75.5467H194.24C192.875 75.5467 192.192 74.864 192.192 73.4987V58.4587C192.192 57.0933 192.875 56.4107 194.24 56.4107H195.456Z" fill="black"/>
</svg>
