<svg width="213" height="24" viewBox="0 0 213 24" fill="none" xmlns="http://www.w3.org/2000/svg">
<g clip-path="url(#clip0_313_2)">
<path d="M11.7541 24C10.1182 24 8.58331 23.6904 7.14939 23.0712C5.73567 22.4519 4.48352 21.593 3.39293 20.4944C2.32254 19.3958 1.48441 18.1273 0.878527 16.6891C0.292842 15.231 0 13.6629 0 11.985C0 10.3271 0.292842 8.77903 0.878527 7.34082C1.48441 5.88265 2.32254 4.61423 3.39293 3.53558C4.46332 2.43695 5.70538 1.57803 7.1191 0.9588C8.55302 0.3196 10.098 0 11.7541 0C13.2284 0 14.5512 0.209738 15.7226 0.629213C16.894 1.02871 18.0351 1.68789 19.1458 2.60674C19.3276 2.74657 19.4387 2.90637 19.4791 3.08614C19.5397 3.24594 19.5397 3.40574 19.4791 3.56554C19.4387 3.72534 19.368 3.86517 19.267 3.98502C19.2266 4.20474 19.1054 4.38452 18.9035 4.52434C18.7217 4.64419 18.4996 4.70412 18.237 4.70412C17.9745 4.70412 17.7119 4.60424 17.4494 4.40449C16.6819 3.72534 15.8539 3.22597 14.9653 2.90637C14.0766 2.56679 13.0062 2.397 11.7541 2.397C10.4817 2.397 9.28007 2.65668 8.1491 3.17603C7.03832 3.6754 6.05881 4.36454 5.21057 5.24344C4.36234 6.12235 3.69587 7.14107 3.21117 8.29963C2.74666 9.45818 2.51441 10.6866 2.51441 11.985C2.51441 13.3233 2.74666 14.5718 3.21117 15.7303C3.69587 16.8889 4.36234 17.9076 5.21057 18.7865C6.05881 19.6654 7.03832 20.3546 8.1491 20.8539C9.28007 21.3533 10.4817 21.603 11.7541 21.603C12.8245 21.603 13.8444 21.4232 14.8138 21.0637C15.7832 20.7041 16.7122 20.1948 17.6008 19.5356C17.8836 19.3159 18.1663 19.226 18.4491 19.2659C18.752 19.3059 19.0045 19.4357 19.2064 19.6554C19.4286 19.8552 19.5397 20.1348 19.5397 20.4944C19.5397 20.6742 19.5094 20.834 19.4488 20.9738C19.3882 21.1136 19.2973 21.2634 19.1761 21.4232C18.1259 22.3221 16.9647 22.9813 15.6923 23.4007C14.4402 23.8002 13.1274 24 11.7541 24Z" fill="url(#paint0_linear_313_2)"/>
<path d="M29.879 23.8502C28.3441 23.8502 26.9708 23.4906 25.759 22.7715C24.5473 22.0325 23.5879 21.0337 22.8811 19.7753C22.1742 18.5169 21.8208 17.0986 21.8208 15.5206C21.8208 13.9226 22.1843 12.4944 22.9114 11.236C23.6586 9.97753 24.6684 8.98876 25.9408 8.26966C27.2131 7.53059 28.6471 7.16105 30.2425 7.16105C31.8178 7.16105 33.2316 7.53059 34.4837 8.26966C35.7561 8.98876 36.7558 9.97753 37.4828 11.236C38.2301 12.4944 38.6138 13.9226 38.634 15.5206L37.604 16.03C37.604 17.5081 37.2607 18.8365 36.574 20.015C35.9075 21.1935 34.9886 22.1323 33.8172 22.8315C32.6661 23.5106 31.3533 23.8502 29.879 23.8502ZM30.2425 21.573C31.3735 21.573 32.3732 21.3134 33.2416 20.794C34.1303 20.2547 34.827 19.5256 35.3319 18.6067C35.857 17.6879 36.1196 16.6592 36.1196 15.5206C36.1196 14.362 35.857 13.3333 35.3319 12.4345C34.827 11.5156 34.1303 10.7865 33.2416 10.2472C32.3732 9.70786 31.3735 9.4382 30.2425 9.4382C29.1318 9.4382 28.122 9.70786 27.2131 10.2472C26.3245 10.7865 25.6176 11.5156 25.0925 12.4345C24.5675 13.3333 24.3049 14.362 24.3049 15.5206C24.3049 16.6592 24.5675 17.6879 25.0925 18.6067C25.6176 19.5256 26.3245 20.2547 27.2131 20.794C28.122 21.3134 29.1318 21.573 30.2425 21.573ZM37.3313 23.7004C36.9678 23.7004 36.6548 23.5905 36.3922 23.3708C36.1499 23.1311 36.0287 22.8215 36.0287 22.4419V17.4981L36.6043 14.8914L38.634 15.5206V22.4419C38.634 22.8215 38.5128 23.1311 38.2705 23.3708C38.0281 23.5905 37.7151 23.7004 37.3313 23.7004Z" fill="url(#paint1_linear_313_2)"/>
<path d="M42.9377 13.5431C42.9781 12.3246 43.2912 11.236 43.8769 10.2772C44.4827 9.29838 45.2704 8.52934 46.2398 7.97004C47.2294 7.41074 48.3099 7.13109 49.4813 7.13109C50.5112 7.13109 51.2888 7.2809 51.8139 7.58052C52.3592 7.88015 52.5611 8.28964 52.4198 8.80899C52.3592 9.08864 52.2279 9.28839 52.0259 9.40824C51.8442 9.52809 51.622 9.58802 51.3595 9.58802C51.1171 9.58802 50.8344 9.56804 50.5112 9.52809C49.3197 9.38826 48.2594 9.46816 47.3304 9.76779C46.4216 10.0474 45.6945 10.5169 45.1492 11.176C44.6039 11.8352 44.3313 12.6242 44.3313 13.5431H42.9377ZM43.0892 23.7004C42.6853 23.7004 42.3723 23.5905 42.1501 23.3708C41.9279 23.1511 41.8169 22.8414 41.8169 22.4419V8.56929C41.8169 8.16979 41.9279 7.86017 42.1501 7.64045C42.3723 7.42072 42.6853 7.31086 43.0892 7.31086C43.4931 7.31086 43.7961 7.42072 43.998 7.64045C44.2202 7.86017 44.3313 8.16979 44.3313 8.56929V22.4419C44.3313 22.8414 44.2202 23.1511 43.998 23.3708C43.7961 23.5905 43.4931 23.7004 43.0892 23.7004Z" fill="url(#paint2_linear_313_2)"/>
<path d="M56.2631 13.5431C56.3035 12.3246 56.6165 11.236 57.2022 10.2772C57.8081 9.29838 58.5957 8.52934 59.5651 7.97004C60.5547 7.41074 61.6352 7.13109 62.8066 7.13109C63.8366 7.13109 64.6141 7.2809 65.1392 7.58052C65.6845 7.88015 65.8865 8.28964 65.7451 8.80899C65.6845 9.08864 65.5532 9.28839 65.3513 9.40824C65.1695 9.52809 64.9474 9.58802 64.6848 9.58802C64.4425 9.58802 64.1597 9.56804 63.8366 9.52809C62.645 9.38826 61.5847 9.46816 60.6557 9.76779C59.7469 10.0474 59.0198 10.5169 58.4745 11.176C57.9292 11.8352 57.6566 12.6242 57.6566 13.5431H56.2631ZM56.4145 23.7004C56.0106 23.7004 55.6976 23.5905 55.4754 23.3708C55.2533 23.1511 55.1422 22.8414 55.1422 22.4419V8.56929C55.1422 8.16979 55.2533 7.86017 55.4754 7.64045C55.6976 7.42072 56.0106 7.31086 56.4145 7.31086C56.8185 7.31086 57.1214 7.42072 57.3234 7.64045C57.5455 7.86017 57.6566 8.16979 57.6566 8.56929V22.4419C57.6566 22.8414 57.5455 23.1511 57.3234 23.3708C57.1214 23.5905 56.8185 23.7004 56.4145 23.7004Z" fill="url(#paint3_linear_313_2)"/>
<path d="M74.259 23.8502C72.6231 23.8502 71.169 23.4906 69.8967 22.7715C68.6445 22.0524 67.6549 21.0637 66.9279 19.8052C66.2008 18.5468 65.8373 17.1186 65.8373 15.5206C65.8373 13.9026 66.2008 12.4644 66.9279 11.206C67.6549 9.94757 68.6445 8.9588 69.8967 8.2397C71.169 7.5206 72.6231 7.16105 74.259 7.16105C75.8747 7.16105 77.3086 7.5206 78.5608 8.2397C79.8129 8.9588 80.8025 9.94757 81.5296 11.206C82.2567 12.4644 82.6303 13.9026 82.6505 15.5206C82.6505 17.1186 82.287 18.5468 81.5599 19.8052C80.8328 21.0637 79.8331 22.0524 78.5608 22.7715C77.3086 23.4906 75.8747 23.8502 74.259 23.8502ZM74.259 21.573C75.39 21.573 76.3998 21.3134 77.2884 20.794C78.1771 20.2547 78.8738 19.5356 79.3787 18.6367C79.8836 17.7179 80.1361 16.6792 80.1361 15.5206C80.1361 14.362 79.8836 13.3233 79.3787 12.4045C78.8738 11.4856 78.1771 10.7665 77.2884 10.2472C76.3998 9.70786 75.39 9.4382 74.259 9.4382C73.128 9.4382 72.1081 9.70786 71.1993 10.2472C70.3107 10.7665 69.6038 11.4856 69.0787 12.4045C68.5738 13.3233 68.3214 14.362 68.3214 15.5206C68.3214 16.6792 68.5738 17.7179 69.0787 18.6367C69.6038 19.5356 70.3107 20.2547 71.1993 20.794C72.1081 21.3134 73.128 21.573 74.259 21.573Z" fill="url(#paint4_linear_313_2)"/>
<path d="M100.722 23.7004C100.358 23.7004 100.045 23.5805 99.7826 23.3408C99.5403 23.0812 99.4191 22.7715 99.4191 22.412V0.299625H102.024V22.412C102.024 22.7715 101.903 23.0812 101.661 23.3408C101.418 23.5805 101.105 23.7004 100.722 23.7004ZM92.4514 2.66667C92.0879 2.66667 91.7951 2.5568 91.5729 2.33708C91.3508 2.09738 91.2397 1.81773 91.2397 1.49813C91.2397 1.13858 91.3508 0.848937 91.5729 0.629213C91.7951 0.409488 92.0879 0.299625 92.4514 0.299625H109.022C109.386 0.299625 109.679 0.409488 109.901 0.629213C110.123 0.848937 110.234 1.13858 110.234 1.49813C110.234 1.81773 110.123 2.09738 109.901 2.33708C109.679 2.5568 109.386 2.66667 109.022 2.66667H92.4514Z" fill="url(#paint5_linear_313_2)"/>
<path d="M121.662 23.7004C121.116 23.7004 120.713 23.4307 120.45 22.8914L111.513 2.27715C111.271 1.6779 111.251 1.1985 111.453 0.838951C111.655 0.479401 112.018 0.299625 112.543 0.299625C113.109 0.299625 113.503 0.569288 113.725 1.10861L121.934 20.4944H121.359L129.569 1.13858C129.71 0.818975 129.871 0.59925 130.053 0.4794C130.255 0.35955 130.508 0.299625 130.811 0.299625C131.336 0.299625 131.689 0.489388 131.871 0.868913C132.053 1.22846 132.043 1.64794 131.841 2.12734L122.813 22.8914C122.692 23.171 122.53 23.3808 122.328 23.5206C122.146 23.6405 121.924 23.7004 121.662 23.7004Z" fill="url(#paint6_linear_313_2)"/>
<path fill-rule="evenodd" clip-rule="evenodd" d="M90.9026 23.7004C89.8524 23.7004 88.9132 23.4507 88.0852 22.9513C87.2572 22.4519 86.6008 21.7628 86.1161 20.8839C85.6516 20.005 85.4193 19.0162 85.4193 17.9176V10.0974H87.964V17.9176C87.964 18.8564 88.2367 19.6355 88.782 20.2547C89.3475 20.8739 90.0543 21.1835 90.9026 21.1835H91.8114C92.1345 21.1835 92.4072 21.3034 92.6293 21.5431C92.8515 21.7828 92.9625 22.0824 92.9625 22.4419C92.9625 22.8215 92.8212 23.1311 92.5384 23.3708C92.2759 23.5905 91.9325 23.7004 91.5084 23.7004H90.9026ZM87.964 7.91011H93.2697C93.613 7.91011 93.8958 8.01997 94.1179 8.2397C94.3401 8.43945 94.4512 8.69913 94.4512 9.01873C94.4512 9.31835 94.3401 9.57803 94.1179 9.79775C93.8958 9.9975 93.613 10.0974 93.2697 10.0974H87.964V7.91011ZM85.4193 7.91011H87.964V3.3558C87.964 2.99625 87.8429 2.69663 87.6005 2.45693C87.3581 2.21723 87.0552 2.09738 86.6917 2.09738C86.308 2.09738 85.9949 2.21723 85.7526 2.45693C85.5304 2.69663 85.4193 2.99625 85.4193 3.3558V7.91011Z" fill="url(#paint7_linear_313_2)"/>
<path d="M87.964 7.91011H85.4193V10.0974H87.964V7.91011Z" fill="url(#paint8_linear_313_2)"/>
<path d="M141 23.671V21.9321L148.943 13.8016C149.948 12.7572 150.767 11.8538 151.399 11.0914C152.031 10.3185 152.492 9.58747 152.782 8.89817C153.073 8.20888 153.218 7.47781 153.218 6.70496C153.218 5.74413 153.005 4.90862 152.58 4.19843C152.166 3.47781 151.585 2.91906 150.839 2.52219C150.093 2.12533 149.228 1.92689 148.244 1.92689C147.207 1.92689 146.306 2.14621 145.539 2.58486C144.782 3.0235 144.197 3.63446 143.782 4.41775C143.368 5.1906 143.161 6.08877 143.161 7.11227H141.124C141.124 5.73368 141.425 4.50653 142.026 3.43081C142.627 2.35509 143.466 1.51436 144.544 0.908616C145.622 0.302872 146.86 0 148.259 0C149.627 0 150.834 0.287206 151.881 0.861619C152.938 1.43603 153.767 2.22454 154.368 3.22715C154.969 4.22977 155.269 5.37337 155.269 6.65796C155.269 7.56658 155.104 8.43864 154.772 9.27415C154.451 10.1097 153.917 11.0026 153.171 11.953C152.435 12.893 151.456 13.9948 150.233 15.2585L143.969 21.6501V21.7285H155.705V23.671H141Z" fill="url(#paint9_linear_313_2)"/>
<path d="M163.585 21.2898L162.078 20.3812L170.782 2.72585L172.306 3.60313L163.585 21.2898ZM167.192 24C165.554 24 164.135 23.5144 162.933 22.5431C161.731 21.5614 160.803 20.1775 160.15 18.3916C159.497 16.5953 159.171 14.47 159.171 12.0157C159.171 9.55091 159.497 7.42559 160.15 5.63969C160.803 3.84334 161.731 2.45431 162.933 1.47258C164.135 0.490862 165.554 0 167.192 0C168.839 0 170.259 0.490862 171.451 1.47258C172.653 2.45431 173.58 3.84334 174.233 5.63969C174.886 7.42559 175.212 9.55091 175.212 12.0157C175.212 14.47 174.886 16.5953 174.233 18.3916C173.591 20.1775 172.668 21.5614 171.466 22.5431C170.264 23.5144 168.839 24 167.192 24ZM167.192 22.0574C168.425 22.0574 169.482 21.6501 170.363 20.8355C171.254 20.0209 171.938 18.8668 172.415 17.3734C172.902 15.8695 173.145 14.0836 173.145 12.0157C173.145 9.93734 172.902 8.14621 172.415 6.6423C171.938 5.13838 171.254 3.97911 170.363 3.16449C169.482 2.34987 168.425 1.94256 167.192 1.94256C165.969 1.94256 164.912 2.34987 164.021 3.16449C163.13 3.97911 162.44 5.13838 161.953 6.6423C161.477 8.14621 161.238 9.93734 161.238 12.0157C161.238 14.0836 161.477 15.8695 161.953 17.3734C162.44 18.8668 163.13 20.0209 164.021 20.8355C164.912 21.6501 165.969 22.0574 167.192 22.0574Z" fill="url(#paint10_linear_313_2)"/>
<path d="M178.71 23.671V21.9321L186.653 13.8016C187.658 12.7572 188.477 11.8538 189.109 11.0914C189.741 10.3185 190.202 9.58747 190.492 8.89817C190.782 8.20888 190.927 7.47781 190.927 6.70496C190.927 5.74413 190.715 4.90862 190.29 4.19843C189.876 3.47781 189.295 2.91906 188.549 2.52219C187.803 2.12533 186.938 1.92689 185.953 1.92689C184.917 1.92689 184.016 2.14621 183.249 2.58486C182.492 3.0235 181.907 3.63446 181.492 4.41775C181.078 5.1906 180.87 6.08877 180.87 7.11227H178.834C178.834 5.73368 179.135 4.50653 179.736 3.43081C180.337 2.35509 181.176 1.51436 182.254 0.908616C183.332 0.302872 184.57 0 185.969 0C187.337 0 188.544 0.287206 189.591 0.861619C190.648 1.43603 191.477 2.22454 192.078 3.22715C192.679 4.22977 192.979 5.37337 192.979 6.65796C192.979 7.56658 192.813 8.43864 192.482 9.27415C192.161 10.1097 191.627 11.0026 190.881 11.953C190.145 12.893 189.166 13.9948 187.943 15.2585L181.679 21.6501V21.7285H193.415V23.671H178.71Z" fill="url(#paint11_linear_313_2)"/>
<path d="M196.166 18.141V16.3864L206.767 0.328982H209.021L198.606 16.1044V16.1984H213V18.141H196.166ZM207.591 23.671V9.19582H209.658V23.671H207.591Z" fill="url(#paint12_linear_313_2)"/>
</g>
<defs>
<linearGradient id="paint0_linear_313_2" x1="0" y1="12" x2="132" y2="12" gradientUnits="userSpaceOnUse">
<stop stop-color="#9B3EFB"/>
<stop offset="1" stop-color="#FA408B"/>
</linearGradient>
<linearGradient id="paint1_linear_313_2" x1="0" y1="12" x2="132" y2="12" gradientUnits="userSpaceOnUse">
<stop stop-color="#9B3EFB"/>
<stop offset="1" stop-color="#FA408B"/>
</linearGradient>
<linearGradient id="paint2_linear_313_2" x1="0" y1="12" x2="132" y2="12" gradientUnits="userSpaceOnUse">
<stop stop-color="#9B3EFB"/>
<stop offset="1" stop-color="#FA408B"/>
</linearGradient>
<linearGradient id="paint3_linear_313_2" x1="0" y1="12" x2="132" y2="12" gradientUnits="userSpaceOnUse">
<stop stop-color="#9B3EFB"/>
<stop offset="1" stop-color="#FA408B"/>
</linearGradient>
<linearGradient id="paint4_linear_313_2" x1="0" y1="12" x2="132" y2="12" gradientUnits="userSpaceOnUse">
<stop stop-color="#9B3EFB"/>
<stop offset="1" stop-color="#FA408B"/>
</linearGradient>
<linearGradient id="paint5_linear_313_2" x1="0" y1="12" x2="132" y2="12" gradientUnits="userSpaceOnUse">
<stop stop-color="#9B3EFB"/>
<stop offset="1" stop-color="#FA408B"/>
</linearGradient>
<linearGradient id="paint6_linear_313_2" x1="0" y1="12" x2="132" y2="12" gradientUnits="userSpaceOnUse">
<stop stop-color="#9B3EFB"/>
<stop offset="1" stop-color="#FA408B"/>
</linearGradient>
<linearGradient id="paint7_linear_313_2" x1="0" y1="12" x2="132" y2="12" gradientUnits="userSpaceOnUse">
<stop stop-color="#9B3EFB"/>
<stop offset="1" stop-color="#FA408B"/>
</linearGradient>
<linearGradient id="paint8_linear_313_2" x1="0" y1="12" x2="132" y2="12" gradientUnits="userSpaceOnUse">
<stop stop-color="#9B3EFB"/>
<stop offset="1" stop-color="#FA408B"/>
</linearGradient>
<linearGradient id="paint9_linear_313_2" x1="141" y1="24" x2="213" y2="24" gradientUnits="userSpaceOnUse">
<stop stop-color="#FA71B4"/>
<stop offset="1" stop-color="#FFBB10"/>
</linearGradient>
<linearGradient id="paint10_linear_313_2" x1="141" y1="24" x2="213" y2="24" gradientUnits="userSpaceOnUse">
<stop stop-color="#FA71B4"/>
<stop offset="1" stop-color="#FFBB10"/>
</linearGradient>
<linearGradient id="paint11_linear_313_2" x1="141" y1="24" x2="213" y2="24" gradientUnits="userSpaceOnUse">
<stop stop-color="#FA71B4"/>
<stop offset="1" stop-color="#FFBB10"/>
</linearGradient>
<linearGradient id="paint12_linear_313_2" x1="141" y1="24" x2="213" y2="24" gradientUnits="userSpaceOnUse">
<stop stop-color="#FA71B4"/>
<stop offset="1" stop-color="#FFBB10"/>
</linearGradient>
<clipPath id="clip0_313_2">
<rect width="213" height="24" fill="white"/>
</clipPath>
</defs>
</svg>
