<svg width="480" height="270" viewBox="0 0 480 270" fill="none" xmlns="http://www.w3.org/2000/svg">
<rect width="480" height="270" fill="white"/>
<path fill-rule="evenodd" clip-rule="evenodd" d="M240.75 130L197.449 155L240.75 180L284.051 155L240.75 130Z" fill="url(#paint0_linear_211_141)"/>
<path d="M240.754 80C236.366 87.601 234.056 96.2232 234.056 105C234.056 113.777 236.366 122.399 240.754 130C245.143 137.601 251.455 143.913 259.056 148.301C266.657 152.69 275.279 155 284.056 155L284.056 105L240.754 80Z" fill="url(#paint1_linear_211_141)"/>
<path fill-rule="evenodd" clip-rule="evenodd" d="M284.051 155L240.75 180L284.051 105L284.051 155Z" fill="url(#paint2_linear_211_141)"/>
<g clip-path="url(#clip0_211_141)">
<path fill-rule="evenodd" clip-rule="evenodd" d="M111.088 60.25L126.677 51.25V33.25L111.088 24.25L95.5 33.25V51.25L111.088 60.25ZM124.677 50.0953L114.821 55.7859L124.677 38.7141V50.0953ZM124.677 34.7141V34.4047L111.762 26.9484C111.701 28.4489 112.052 29.718 112.63 31.5636C113.352 33.8674 114.638 35.9541 116.373 37.6334C117.962 39.1721 119.277 40.3513 121.022 41.0451L124.677 34.7141ZM120.013 42.7916L111.356 57.7859L111.088 57.9406L97.5 50.0953V34.4047L109.756 27.3287C109.763 28.9859 110.173 30.411 110.722 32.1614C111.543 34.7837 113.007 37.1588 114.982 39.0703C116.511 40.5508 117.999 41.9249 120.013 42.7916Z" fill="black"/>
</g>
<g clip-path="url(#clip1_211_141)">
<path d="M197.001 60.25L181.413 51.25V33.25L197.001 24.25L212.59 33.25V51.25L197.001 60.25Z" fill="#D9D9D9"/>
<path fill-rule="evenodd" clip-rule="evenodd" d="M212.59 51.25L212.59 33.25L197.001 60.25L212.59 51.25Z" fill="#5D5D5D"/>
<path d="M197 24.25C198.58 26.9863 199.412 30.0903 199.412 33.25C199.412 36.4097 198.58 39.5137 197 42.25C195.42 44.9863 193.148 47.2586 190.412 48.8385C187.675 50.4183 184.571 51.25 181.412 51.25L181.412 33.25L197 24.25Z" fill="#5D5D5D"/>
</g>
<g clip-path="url(#clip2_211_141)">
<path d="M283 24.25L298.589 33.25V51.25L283 60.25L267.412 51.25V33.25L283 24.25Z" fill="#D9D9D9"/>
<path fill-rule="evenodd" clip-rule="evenodd" d="M267.412 51.25L283 60.25L298.589 51.25H267.412Z" fill="#868686"/>
<path fill-rule="evenodd" clip-rule="evenodd" d="M267.412 51.25L283 42.25L298.589 51.25H267.412Z" fill="#868686"/>
<path d="M283.001 24.25C281.422 26.9863 280.59 30.0903 280.59 33.25C280.59 36.4097 281.422 39.5137 283.001 42.25C284.581 44.9863 286.853 47.2586 289.59 48.8385C292.326 50.4183 295.43 51.25 298.59 51.25L298.59 33.25L283.001 24.25Z" fill="#9D9D9D"/>
<path fill-rule="evenodd" clip-rule="evenodd" d="M298.588 51.25L283 60.25L298.588 33.25L298.588 51.25Z" fill="#5D5D5D"/>
</g>
<g clip-path="url(#clip3_211_141)">
<path fill-rule="evenodd" clip-rule="evenodd" d="M369 42.25L353.412 51.25L369 60.25L384.589 51.25L369 42.25Z" fill="#868686"/>
<path d="M369.001 24.25C367.422 26.9863 366.59 30.0903 366.59 33.25C366.59 36.4097 367.422 39.5137 369.001 42.25C370.581 44.9863 372.853 47.2586 375.59 48.8385C378.326 50.4183 381.43 51.25 384.59 51.25L384.59 33.25L369.001 24.25Z" fill="#9D9D9D"/>
<path fill-rule="evenodd" clip-rule="evenodd" d="M384.588 51.25L369 60.25L384.588 33.25L384.588 51.25Z" fill="#5D5D5D"/>
</g>
<g filter="url(#filter0_d_211_141)">
<path d="M194.331 211.25C193.658 211.25 193.028 211.121 192.438 210.863C191.857 210.605 191.343 210.247 190.894 209.789C190.455 209.332 190.11 208.803 189.861 208.204C189.62 207.596 189.5 206.943 189.5 206.244C189.5 205.553 189.62 204.908 189.861 204.309C190.11 203.701 190.455 203.173 190.894 202.723C191.334 202.265 191.845 201.908 192.426 201.649C193.015 201.383 193.65 201.25 194.331 201.25C194.937 201.25 195.48 201.337 195.962 201.512C196.443 201.679 196.912 201.953 197.369 202.336C197.443 202.394 197.489 202.461 197.506 202.536C197.531 202.602 197.531 202.669 197.506 202.736C197.489 202.802 197.46 202.86 197.418 202.91C197.402 203.002 197.352 203.077 197.269 203.135C197.194 203.185 197.103 203.21 196.995 203.21C196.887 203.21 196.779 203.168 196.671 203.085C196.356 202.802 196.016 202.594 195.65 202.461C195.285 202.319 194.845 202.249 194.331 202.249C193.808 202.249 193.314 202.357 192.849 202.573C192.393 202.781 191.99 203.069 191.641 203.435C191.293 203.801 191.019 204.225 190.82 204.708C190.629 205.191 190.533 205.703 190.533 206.244C190.533 206.801 190.629 207.322 190.82 207.804C191.019 208.287 191.293 208.712 191.641 209.078C191.99 209.444 192.393 209.731 192.849 209.939C193.314 210.147 193.808 210.251 194.331 210.251C194.771 210.251 195.19 210.176 195.588 210.027C195.987 209.877 196.368 209.664 196.734 209.39C196.85 209.298 196.966 209.261 197.082 209.277C197.207 209.294 197.311 209.348 197.394 209.44C197.485 209.523 197.531 209.64 197.531 209.789C197.531 209.864 197.518 209.931 197.493 209.989C197.468 210.047 197.431 210.11 197.381 210.176C196.949 210.551 196.472 210.826 195.949 211C195.435 211.167 194.895 211.25 194.331 211.25Z" fill="black"/>
<path d="M201.78 211.188C201.149 211.188 200.585 211.038 200.087 210.738C199.589 210.43 199.194 210.014 198.904 209.49C198.613 208.965 198.468 208.374 198.468 207.717C198.468 207.051 198.617 206.456 198.916 205.932C199.223 205.407 199.638 204.995 200.161 204.696C200.684 204.388 201.274 204.234 201.929 204.234C202.577 204.234 203.158 204.388 203.672 204.696C204.195 204.995 204.606 205.407 204.905 205.932C205.212 206.456 205.37 207.051 205.378 207.717L204.955 207.929C204.955 208.545 204.814 209.099 204.531 209.59C204.257 210.081 203.88 210.472 203.398 210.763C202.925 211.046 202.386 211.188 201.78 211.188ZM201.929 210.239C202.394 210.239 202.805 210.131 203.162 209.914C203.527 209.689 203.813 209.386 204.021 209.003C204.237 208.62 204.345 208.191 204.345 207.717C204.345 207.234 204.237 206.806 204.021 206.431C203.813 206.048 203.527 205.744 203.162 205.52C202.805 205.295 202.394 205.183 201.929 205.183C201.473 205.183 201.058 205.295 200.684 205.52C200.319 205.744 200.028 206.048 199.813 206.431C199.597 206.806 199.489 207.234 199.489 207.717C199.489 208.191 199.597 208.62 199.813 209.003C200.028 209.386 200.319 209.689 200.684 209.914C201.058 210.131 201.473 210.239 201.929 210.239ZM204.843 211.125C204.693 211.125 204.565 211.079 204.457 210.988C204.357 210.888 204.307 210.759 204.307 210.601V208.541L204.544 207.455L205.378 207.717V210.601C205.378 210.759 205.328 210.888 205.229 210.988C205.129 211.079 205 211.125 204.843 211.125Z" fill="black"/>
<path d="M207.147 206.893C207.163 206.385 207.292 205.932 207.533 205.532C207.782 205.124 208.105 204.804 208.504 204.571C208.911 204.338 209.355 204.221 209.836 204.221C210.259 204.221 210.579 204.284 210.795 204.409C211.019 204.533 211.102 204.704 211.044 204.92C211.019 205.037 210.965 205.12 210.882 205.17C210.807 205.22 210.716 205.245 210.608 205.245C210.508 205.245 210.392 205.237 210.259 205.22C209.77 205.162 209.334 205.195 208.952 205.32C208.579 205.436 208.28 205.632 208.056 205.907C207.832 206.181 207.719 206.51 207.719 206.893H207.147ZM207.209 211.125C207.043 211.125 206.914 211.079 206.823 210.988C206.732 210.896 206.686 210.767 206.686 210.601V204.821C206.686 204.654 206.732 204.525 206.823 204.434C206.914 204.342 207.043 204.296 207.209 204.296C207.375 204.296 207.5 204.342 207.583 204.434C207.674 204.525 207.719 204.654 207.719 204.821V210.601C207.719 210.767 207.674 210.896 207.583 210.988C207.5 211.079 207.375 211.125 207.209 211.125Z" fill="black"/>
<path d="M212.623 206.893C212.64 206.385 212.769 205.932 213.009 205.532C213.258 205.124 213.582 204.804 213.98 204.571C214.387 204.338 214.831 204.221 215.313 204.221C215.736 204.221 216.055 204.284 216.271 204.409C216.495 204.533 216.578 204.704 216.52 204.92C216.495 205.037 216.441 205.12 216.358 205.17C216.284 205.22 216.192 205.245 216.084 205.245C215.985 205.245 215.869 205.237 215.736 205.22C215.246 205.162 214.81 205.195 214.429 205.32C214.055 205.436 213.756 205.632 213.532 205.907C213.308 206.181 213.196 206.51 213.196 206.893H212.623ZM212.686 211.125C212.52 211.125 212.391 211.079 212.3 210.988C212.208 210.896 212.163 210.767 212.163 210.601V204.821C212.163 204.654 212.208 204.525 212.3 204.434C212.391 204.342 212.52 204.296 212.686 204.296C212.852 204.296 212.976 204.342 213.059 204.434C213.15 204.525 213.196 204.654 213.196 204.821V210.601C213.196 210.767 213.15 210.896 213.059 210.988C212.976 211.079 212.852 211.125 212.686 211.125Z" fill="black"/>
<path d="M220.019 211.188C219.347 211.188 218.749 211.038 218.226 210.738C217.712 210.439 217.305 210.027 217.006 209.502C216.708 208.978 216.558 208.383 216.558 207.717C216.558 207.043 216.708 206.444 217.006 205.919C217.305 205.395 217.712 204.983 218.226 204.683C218.749 204.384 219.347 204.234 220.019 204.234C220.683 204.234 221.273 204.384 221.787 204.683C222.302 204.983 222.709 205.395 223.007 205.919C223.306 206.444 223.46 207.043 223.468 207.717C223.468 208.383 223.319 208.978 223.02 209.502C222.721 210.027 222.31 210.439 221.787 210.738C221.273 211.038 220.683 211.188 220.019 211.188ZM220.019 210.239C220.484 210.239 220.899 210.131 221.264 209.914C221.63 209.689 221.916 209.39 222.123 209.015C222.331 208.632 222.435 208.2 222.435 207.717C222.435 207.234 222.331 206.801 222.123 206.419C221.916 206.036 221.63 205.736 221.264 205.52C220.899 205.295 220.484 205.183 220.019 205.183C219.555 205.183 219.135 205.295 218.762 205.52C218.397 205.736 218.106 206.036 217.89 206.419C217.683 206.801 217.579 207.234 217.579 207.717C217.579 208.2 217.683 208.632 217.89 209.015C218.106 209.39 218.397 209.689 218.762 209.914C219.135 210.131 219.555 210.239 220.019 210.239Z" fill="black"/>
<path d="M230.895 211.125C230.746 211.125 230.617 211.075 230.509 210.975C230.41 210.867 230.36 210.738 230.36 210.588V201.375H231.43V210.588C231.43 210.738 231.381 210.867 231.281 210.975C231.181 211.075 231.053 211.125 230.895 211.125ZM227.496 202.361C227.347 202.361 227.226 202.315 227.135 202.224C227.044 202.124 226.998 202.007 226.998 201.874C226.998 201.724 227.044 201.604 227.135 201.512C227.226 201.421 227.347 201.375 227.496 201.375H234.307C234.456 201.375 234.576 201.421 234.668 201.512C234.759 201.604 234.805 201.724 234.805 201.874C234.805 202.007 234.759 202.124 234.668 202.224C234.576 202.315 234.456 202.361 234.307 202.361H227.496Z" fill="black"/>
<path d="M239.501 211.125C239.277 211.125 239.111 211.013 239.003 210.788L235.33 202.199C235.231 201.949 235.222 201.749 235.305 201.6C235.388 201.45 235.538 201.375 235.754 201.375C235.986 201.375 236.148 201.487 236.239 201.712L239.613 209.789H239.377L242.751 201.724C242.809 201.591 242.875 201.5 242.95 201.45C243.033 201.4 243.137 201.375 243.261 201.375C243.477 201.375 243.622 201.454 243.697 201.612C243.772 201.762 243.767 201.937 243.684 202.136L239.974 210.788C239.924 210.905 239.858 210.992 239.775 211.05C239.7 211.1 239.609 211.125 239.501 211.125Z" fill="black"/>
<path fill-rule="evenodd" clip-rule="evenodd" d="M226.86 211.125C226.428 211.125 226.042 211.021 225.702 210.813C225.361 210.605 225.092 210.318 224.892 209.952C224.702 209.585 224.606 209.173 224.606 208.716V205.457H225.652V208.716C225.652 209.107 225.764 209.431 225.988 209.689C226.22 209.947 226.511 210.076 226.86 210.076H227.233C227.366 210.076 227.478 210.126 227.569 210.226C227.661 210.326 227.706 210.451 227.706 210.601C227.706 210.759 227.648 210.888 227.532 210.988C227.424 211.079 227.283 211.125 227.109 211.125H226.86ZM225.652 204.546H227.832C227.974 204.546 228.09 204.592 228.181 204.683C228.272 204.766 228.318 204.875 228.318 205.008C228.318 205.133 228.272 205.241 228.181 205.332C228.09 205.416 227.974 205.457 227.832 205.457H225.652V204.546ZM224.606 204.546H225.652V202.648C225.652 202.498 225.602 202.374 225.502 202.274C225.403 202.174 225.278 202.124 225.129 202.124C224.971 202.124 224.843 202.174 224.743 202.274C224.652 202.374 224.606 202.498 224.606 202.648V204.546Z" fill="black"/>
<path d="M225.652 204.546H224.606V205.457H225.652V204.546Z" fill="black"/>
</g>
<path d="M189.29 241.25V239.984L197.493 232C198.629 230.896 199.54 229.932 200.228 229.109C200.925 228.276 201.431 227.49 201.743 226.75C202.066 226.01 202.228 225.234 202.228 224.422C202.228 223.339 201.988 222.391 201.509 221.578C201.03 220.755 200.358 220.115 199.493 219.656C198.639 219.188 197.639 218.953 196.493 218.953C195.326 218.953 194.306 219.198 193.431 219.688C192.556 220.167 191.873 220.839 191.384 221.703C190.905 222.557 190.665 223.547 190.665 224.672H189.321C189.321 223.307 189.618 222.099 190.212 221.047C190.816 219.984 191.66 219.151 192.743 218.547C193.826 217.943 195.071 217.641 196.478 217.641C197.873 217.641 199.103 217.932 200.165 218.516C201.238 219.089 202.076 219.885 202.681 220.906C203.285 221.917 203.587 223.073 203.587 224.375C203.587 225.312 203.41 226.203 203.056 227.047C202.712 227.891 202.165 228.776 201.415 229.703C200.675 230.62 199.701 231.672 198.493 232.859L191.243 239.922V239.938H203.899V241.25H189.29Z" fill="black"/>
<path d="M221.899 239L220.868 238.172L229.805 220.25L230.868 221.016L221.899 239ZM225.883 241.547C224.279 241.547 222.868 241.047 221.649 240.047C220.44 239.047 219.498 237.656 218.821 235.875C218.144 234.083 217.805 232 217.805 229.625C217.805 227.24 218.144 225.156 218.821 223.375C219.498 221.583 220.44 220.188 221.649 219.188C222.868 218.177 224.279 217.672 225.883 217.672C227.477 217.672 228.878 218.177 230.086 219.188C231.295 220.188 232.237 221.583 232.914 223.375C233.591 225.156 233.93 227.24 233.93 229.625C233.93 232 233.591 234.083 232.914 235.875C232.237 237.656 231.295 239.047 230.086 240.047C228.878 241.047 227.477 241.547 225.883 241.547ZM225.883 240.234C227.216 240.234 228.383 239.792 229.383 238.906C230.383 238.021 231.164 236.786 231.727 235.203C232.289 233.609 232.571 231.75 232.571 229.625C232.571 227.49 232.289 225.63 231.727 224.047C231.164 222.453 230.383 221.214 229.383 220.328C228.383 219.432 227.216 218.984 225.883 218.984C224.55 218.984 223.378 219.432 222.368 220.328C221.368 221.214 220.581 222.453 220.008 224.047C219.446 225.63 219.164 227.49 219.164 229.625C219.164 231.75 219.446 233.609 220.008 235.203C220.581 236.786 221.368 238.021 222.368 238.906C223.378 239.792 224.55 240.234 225.883 240.234Z" fill="black"/>
<path d="M247.82 241.25V239.984L256.023 232C257.159 230.896 258.07 229.932 258.758 229.109C259.455 228.276 259.961 227.49 260.273 226.75C260.596 226.01 260.758 225.234 260.758 224.422C260.758 223.339 260.518 222.391 260.039 221.578C259.56 220.755 258.888 220.115 258.023 219.656C257.169 219.188 256.169 218.953 255.023 218.953C253.856 218.953 252.836 219.198 251.961 219.688C251.086 220.167 250.403 220.839 249.914 221.703C249.435 222.557 249.195 223.547 249.195 224.672H247.851C247.851 223.307 248.148 222.099 248.742 221.047C249.346 219.984 250.19 219.151 251.273 218.547C252.356 217.943 253.601 217.641 255.008 217.641C256.403 217.641 257.633 217.932 258.695 218.516C259.768 219.089 260.606 219.885 261.211 220.906C261.815 221.917 262.117 223.073 262.117 224.375C262.117 225.312 261.94 226.203 261.586 227.047C261.242 227.891 260.695 228.776 259.945 229.703C259.205 230.62 258.231 231.672 257.023 232.859L249.773 239.922V239.938H262.429V241.25H247.82Z" fill="black"/>
<path d="M283.991 241.562C282.606 241.562 281.382 241.286 280.319 240.734C279.257 240.172 278.418 239.406 277.804 238.438C277.189 237.458 276.871 236.354 276.851 235.125H278.273C278.304 236.115 278.559 236.995 279.038 237.766C279.528 238.536 280.194 239.146 281.038 239.594C281.892 240.031 282.877 240.25 283.991 240.25C285.231 240.25 286.319 239.974 287.257 239.422C288.205 238.859 288.939 238.099 289.46 237.141C289.991 236.182 290.257 235.099 290.257 233.891C290.257 232.661 289.996 231.578 289.476 230.641C288.965 229.693 288.257 228.948 287.351 228.406C286.444 227.865 285.403 227.594 284.226 227.594C282.934 227.594 281.767 227.875 280.726 228.438C279.694 228.99 278.986 229.76 278.601 230.75H277.257L278.241 217.969H290.96V219.281H279.538L278.741 228.672H278.757C279.309 228.016 280.059 227.453 281.007 226.984C281.955 226.505 283.059 226.266 284.319 226.266C285.392 226.266 286.377 226.453 287.273 226.828C288.168 227.203 288.939 227.734 289.585 228.422C290.241 229.099 290.746 229.901 291.101 230.828C291.465 231.755 291.648 232.776 291.648 233.891C291.648 235.37 291.319 236.688 290.663 237.844C290.017 239 289.121 239.911 287.976 240.578C286.83 241.234 285.502 241.562 283.991 241.562Z" fill="black"/>
<defs>
<filter id="filter0_d_211_141" x="160.2" y="174.95" width="112.85" height="68.6" filterUnits="userSpaceOnUse" color-interpolation-filters="sRGB">
<feFlood flood-opacity="0" result="BackgroundImageFix"/>
<feColorMatrix in="SourceAlpha" type="matrix" values="0 0 0 0 0 0 0 0 0 0 0 0 0 0 0 0 0 0 127 0" result="hardAlpha"/>
<feOffset dy="3"/>
<feGaussianBlur stdDeviation="14.65"/>
<feComposite in2="hardAlpha" operator="out"/>
<feColorMatrix type="matrix" values="0 0 0 0 1 0 0 0 0 1 0 0 0 0 1 0 0 0 0.59 0"/>
<feBlend mode="normal" in2="BackgroundImageFix" result="effect1_dropShadow_211_141"/>
<feBlend mode="normal" in="SourceGraphic" in2="effect1_dropShadow_211_141" result="shape"/>
</filter>
<linearGradient id="paint0_linear_211_141" x1="196.306" y1="129.306" x2="240.75" y2="180" gradientUnits="userSpaceOnUse">
<stop offset="0.0412858" stop-color="#1296FD"/>
<stop offset="0.885511" stop-color="#5945EA"/>
</linearGradient>
<linearGradient id="paint1_linear_211_141" x1="233.806" y1="80" x2="283.806" y2="155" gradientUnits="userSpaceOnUse">
<stop stop-color="#FBB806"/>
<stop offset="0.708333" stop-color="#FB8F06"/>
</linearGradient>
<linearGradient id="paint2_linear_211_141" x1="240.75" y1="105" x2="283.806" y2="180" gradientUnits="userSpaceOnUse">
<stop stop-color="#FA71B4"/>
<stop offset="0.797646" stop-color="#FA408B"/>
</linearGradient>
<clipPath id="clip0_211_141">
<rect width="36" height="36" fill="white" transform="translate(93 24.25)"/>
</clipPath>
<clipPath id="clip1_211_141">
<rect width="36" height="36" fill="white" transform="translate(179 24.25)"/>
</clipPath>
<clipPath id="clip2_211_141">
<rect width="36" height="36" fill="white" transform="translate(265 24.25)"/>
</clipPath>
<clipPath id="clip3_211_141">
<rect width="36" height="36" fill="white" transform="translate(351 24.25)"/>
</clipPath>
</defs>
</svg>
